<?xml version="1.0" encoding="UTF-8"?>
<!DOCTYPE svg PUBLIC "-//W3C//DTD SVG 1.1//EN" "http://www.w3.org/Graphics/SVG/1.1/DTD/svg11.dtd">
<svg xmlns="http://www.w3.org/2000/svg" version="1.1" width="898px" height="256px" style="shape-rendering:geometricPrecision; text-rendering:geometricPrecision; image-rendering:optimizeQuality; fill-rule:evenodd; clip-rule:evenodd" xmlns:xlink="http://www.w3.org/1999/xlink">
<g><path style="opacity:0.888" fill="#47c9e3" d="M 134.5,101.5 C 134.285,103.179 134.952,104.179 136.5,104.5C 139.187,104.336 141.854,104.503 144.5,105C 145.376,106.585 146.709,107.585 148.5,108C 149.12,110.473 149.786,112.973 150.5,115.5C 151.799,116.09 152.632,117.09 153,118.5C 155.226,116.715 156.392,114.382 156.5,111.5C 157.5,111.5 158.5,111.5 159.5,111.5C 159.167,108.5 160.5,107.167 163.5,107.5C 163.5,106.5 163.5,105.5 163.5,104.5C 165.833,104.5 168.167,104.5 170.5,104.5C 170.33,103.178 170.663,102.011 171.5,101C 176.833,100.333 182.167,100.333 187.5,101C 190.236,103.6 193.569,104.933 197.5,105C 198.595,106.675 200.095,107.842 202,108.5C 202.483,109.448 202.649,110.448 202.5,111.5C 203.5,111.5 204.5,111.5 205.5,111.5C 205.5,113.833 205.5,116.167 205.5,118.5C 207.124,118.36 208.29,119.027 209,120.5C 209.5,113.842 209.666,107.175 209.5,100.5C 219.833,100.5 230.167,100.5 240.5,100.5C 240.33,101.822 240.663,102.989 241.5,104C 244.5,104.333 247.5,104.667 250.5,105C 251.333,106.5 252.5,107.667 254,108.5C 256.88,112.288 258.713,116.621 259.5,121.5C 260.167,121.833 260.833,122.167 261.5,122.5C 262.497,115.197 262.831,107.863 262.5,100.5C 276.402,101.362 290.402,101.362 304.5,100.5C 304.338,102.527 304.505,104.527 305,106.5C 309.186,109.424 311.519,113.424 312,118.5C 312.333,114.167 312.667,109.833 313,105.5C 313.635,104.034 314.469,102.7 315.5,101.5C 321.32,100.184 326.987,100.184 332.5,101.5C 332.5,122.167 332.5,142.833 332.5,163.5C 326.347,164.653 320.014,164.82 313.5,164C 312.491,161.828 310.824,160.662 308.5,160.5C 308.5,158.167 308.5,155.833 308.5,153.5C 307.178,153.67 306.011,153.337 305,152.5C 304.825,156.211 304.325,159.878 303.5,163.5C 297.552,164.624 291.552,164.79 285.5,164C 284.584,163.626 283.75,163.126 283,162.5C 282.25,163.126 281.416,163.626 280.5,164C 274.78,164.788 269.114,164.621 263.5,163.5C 262.833,156.5 262.167,149.5 261.5,142.5C 260.522,142.977 259.689,143.643 259,144.5C 258.869,148.056 257.702,151.056 255.5,153.5C 252.5,153.167 251.167,154.5 251.5,157.5C 250.5,157.5 249.5,157.5 248.5,157.5C 248.5,158.5 248.5,159.5 248.5,160.5C 245.085,160.566 242.085,161.732 239.5,164C 230.167,164.667 220.833,164.667 211.5,164C 209.721,157.106 208.888,149.94 209,142.5C 208.585,144.291 207.585,145.624 206,146.5C 203.881,155.148 198.381,159.981 189.5,161C 188.5,162 187.5,163 186.5,164C 174.982,164.12 174.982,165.62 186.5,168.5C 187.386,169.325 187.719,170.325 187.5,171.5C 189.857,171.337 192.19,171.503 194.5,172C 197.691,174.307 201.358,175.473 205.5,175.5C 205.5,176.5 205.5,177.5 205.5,178.5C 207.833,178.5 210.167,178.5 212.5,178.5C 212.5,179.5 212.5,180.5 212.5,181.5C 213.822,181.33 214.989,181.663 216,182.5C 216.499,186.821 216.666,191.154 216.5,195.5C 215.167,195.5 213.833,195.5 212.5,195.5C 212.5,197.833 212.5,200.167 212.5,202.5C 211.5,202.5 210.5,202.5 209.5,202.5C 209.843,204.483 209.176,205.817 207.5,206.5C 206.167,206.5 205.5,207.167 205.5,208.5C 205.649,209.552 205.483,210.552 205,211.5C 201.159,215.658 196.659,218.658 191.5,220.5C 191.5,221.833 191.5,223.167 191.5,224.5C 190.167,224.5 188.833,224.5 187.5,224.5C 187.5,225.5 187.5,226.5 187.5,227.5C 185.167,227.5 182.833,227.5 180.5,227.5C 180.5,228.833 180.5,230.167 180.5,231.5C 178.167,231.5 175.833,231.5 173.5,231.5C 173.5,232.5 173.5,233.5 173.5,234.5C 171.167,234.5 168.833,234.5 166.5,234.5C 166.67,235.822 166.337,236.989 165.5,238C 160.136,238.171 154.802,238.671 149.5,239.5C 149.291,240.086 148.957,240.586 148.5,241C 141.5,241.167 134.5,241.333 127.5,241.5C 114.831,241.487 102.497,240.32 90.5,238C 89.6634,236.989 89.33,235.822 89.5,234.5C 86.8127,234.664 84.146,234.497 81.5,234C 76.85,232.261 72.5166,230.095 68.5,227.5C 68.5,226.5 68.5,225.5 68.5,224.5C 66.4727,224.662 64.4727,224.495 62.5,224C 61.6634,222.989 61.33,221.822 61.5,220.5C 60.1667,220.5 58.8333,220.5 57.5,220.5C 57.5,219.5 57.5,218.5 57.5,217.5C 54.5,217.833 53.1667,216.5 53.5,213.5C 52.5,213.5 51.5,213.5 50.5,213.5C 50.5,212.5 50.5,211.5 50.5,210.5C 47.5,210.833 46.1667,209.5 46.5,206.5C 45.5,206.5 44.5,206.5 43.5,206.5C 41.6377,203.853 39.6377,201.186 37.5,198.5C 36.5344,196.604 36.2011,194.604 36.5,192.5C 35.1667,192.5 33.8333,192.5 32.5,192.5C 32.7254,190.284 31.8921,188.617 30,187.5C 29.502,184.518 29.3354,181.518 29.5,178.5C 28.1779,178.67 27.0113,178.337 26,177.5C 26.0043,173.808 25.0043,170.475 23,167.5C 22.5014,163.848 22.3347,160.182 22.5,156.5C 21.1779,156.67 20.0113,156.337 19,155.5C 18.3333,138.5 18.3333,121.5 19,104.5C 19.6667,103.167 20.6667,102.167 22,101.5C 22.4986,97.8484 22.6653,94.1817 22.5,90.5C 23.5,90.5 24.5,90.5 25.5,90.5C 25.3359,87.8127 25.5026,85.146 26,82.5C 26.3678,81.09 27.2011,80.09 28.5,79.5C 29.4742,77.2573 29.8076,74.924 29.5,72.5C 30.5,72.5 31.5,72.5 32.5,72.5C 32.3379,70.4727 32.5045,68.4727 33,66.5C 34.0113,65.6634 35.1779,65.33 36.5,65.5C 37.8632,61.8064 40.0299,58.4731 43,55.5C 43.49,54.2068 43.6567,52.8734 43.5,51.5C 44.5,51.5 45.5,51.5 46.5,51.5C 46.1667,48.5 47.5,47.1667 50.5,47.5C 50.5,46.5 50.5,45.5 50.5,44.5C 51.8333,44.5 53.1667,44.5 54.5,44.5C 54.7593,40.9319 56.7593,39.5985 60.5,40.5C 60.5,39.5 60.5,38.5 60.5,37.5C 61.8333,37.5 63.1667,37.5 64.5,37.5C 64.5,36.1667 64.5,34.8333 64.5,33.5C 65.8333,33.5 67.1667,33.5 68.5,33.5C 68.5,32.5 68.5,31.5 68.5,30.5C 70.5273,30.6621 72.5273,30.4955 74.5,30C 77.5142,26.9659 81.1809,25.7992 85.5,26.5C 85.5,25.5 85.5,24.5 85.5,23.5C 88.8131,22.9552 92.1464,22.4552 95.5,22C 95.9574,21.586 96.2907,21.086 96.5,20.5C 102.463,19.5041 108.463,19.1707 114.5,19.5C 114.5,18.5 114.5,17.5 114.5,16.5C 119.82,15.7343 125.154,15.5676 130.5,16C 133.119,16.1515 135.453,16.9848 137.5,18.5C 143.5,19.1667 149.5,19.8333 155.5,20.5C 155.709,21.086 156.043,21.586 156.5,22C 159.827,22.6103 163.161,23.1103 166.5,23.5C 166.5,24.5 166.5,25.5 166.5,26.5C 168.833,26.5 171.167,26.5 173.5,26.5C 173.5,27.5 173.5,28.5 173.5,29.5C 175.806,29.9926 178.139,30.3259 180.5,30.5C 180.5,31.5 180.5,32.5 180.5,33.5C 182.527,33.3379 184.527,33.5045 186.5,34C 187.337,35.0113 187.67,36.1779 187.5,37.5C 188.833,37.5 190.167,37.5 191.5,37.5C 191.5,38.5 191.5,39.5 191.5,40.5C 192.833,40.5 194.167,40.5 195.5,40.5C 195.5,41.8333 195.5,43.1667 195.5,44.5C 199.814,44.6481 202.481,46.8147 203.5,51C 207.972,51.4174 209.972,53.9174 209.5,58.5C 210.5,58.5 211.5,58.5 212.5,58.5C 212.5,59.8333 212.5,61.1667 212.5,62.5C 214.124,62.3601 215.29,63.0267 216,64.5C 216.929,68.2441 216.429,71.7441 214.5,75C 212.527,75.4955 210.527,75.6621 208.5,75.5C 208.719,76.675 208.386,77.675 207.5,78.5C 205.009,78.9094 203.009,80.0761 201.5,82C 199.527,82.4955 197.527,82.6621 195.5,82.5C 195.67,83.8221 195.337,84.9887 194.5,86C 191.661,87.6571 188.661,88.9904 185.5,90C 183.836,93.1362 181.169,94.3029 177.5,93.5C 177.5,94.5 177.5,95.5 177.5,96.5C 173.544,96.9048 170.044,98.2381 167,100.5C 163.78,97.8024 160.28,95.4691 156.5,93.5C 156.5,92.1667 156.5,90.8333 156.5,89.5C 155.167,89.5 153.833,89.5 152.5,89.5C 152.5,88.5 152.5,87.5 152.5,86.5C 150.176,86.3385 148.509,85.1718 147.5,83C 144.028,83.0574 141.028,82.0574 138.5,80C 129.173,79.5002 119.839,79.3335 110.5,79.5C 110.5,80.5 110.5,81.5 110.5,82.5C 108.167,82.5 105.833,82.5 103.5,82.5C 103.5,83.8333 103.5,85.1667 103.5,86.5C 102.167,86.5 100.833,86.5 99.5,86.5C 99.5,87.5 99.5,88.5 99.5,89.5C 98.1266,89.3433 96.7932,89.51 95.5,90C 92.9593,92.916 90.7927,96.0827 89,99.5C 87.9887,100.337 86.8221,100.67 85.5,100.5C 85.5,102.833 85.5,105.167 85.5,107.5C 84.5,107.5 83.5,107.5 82.5,107.5C 83.1098,112.704 81.9432,117.371 79,121.5C 78.1694,127.859 78.3361,134.193 79.5,140.5C 80.086,140.709 80.586,141.043 81,141.5C 81.9449,145.114 82.6116,148.781 83,152.5C 84.8921,153.617 85.7254,155.284 85.5,157.5C 86.5,157.5 87.5,157.5 88.5,157.5C 88.9926,159.806 89.3259,162.139 89.5,164.5C 90.5,164.5 91.5,164.5 92.5,164.5C 92.5,165.5 92.5,166.5 92.5,167.5C 95.5,167.167 96.8333,168.5 96.5,171.5C 98.9443,173.702 101.944,174.869 105.5,175C 106.337,176.011 106.67,177.178 106.5,178.5C 111.214,178.173 115.88,178.507 120.5,179.5C 120.709,180.086 121.043,180.586 121.5,181C 124.833,181.667 128.167,181.667 131.5,181C 132.167,180.333 132.833,179.667 133.5,179C 138.823,178.501 144.156,178.334 149.5,178.5C 149.33,177.178 149.663,176.011 150.5,175C 154.056,174.869 157.056,173.702 159.5,171.5C 159.351,170.448 159.517,169.448 160,168.5C 164.124,165.203 168.957,163.703 174.5,164C 172.709,163.585 171.376,162.585 170.5,161C 168.19,160.503 165.857,160.337 163.5,160.5C 163.5,159.5 163.5,158.5 163.5,157.5C 160.5,157.833 159.167,156.5 159.5,153.5C 158.5,153.5 157.5,153.5 156.5,153.5C 156.5,151.167 156.5,148.833 156.5,146.5C 155.178,146.67 154.011,146.337 153,145.5C 152.667,137.167 152.333,128.833 152,120.5C 149.959,121.423 147.792,121.756 145.5,121.5C 145.5,122.833 145.5,124.167 145.5,125.5C 140.833,125.5 136.167,125.5 131.5,125.5C 131.5,124.167 131.5,122.833 131.5,121.5C 128.482,121.335 125.482,121.502 122.5,122C 121.491,124.172 119.824,125.338 117.5,125.5C 116.102,132.323 118.269,137.323 124,140.5C 124.483,141.448 124.649,142.448 124.5,143.5C 125.833,143.5 127.167,143.5 128.5,143.5C 128.5,142.167 128.5,140.833 128.5,139.5C 130.682,137.912 133.182,136.912 136,136.5C 139.991,138.238 144.157,139.571 148.5,140.5C 148.586,142.677 149.253,144.677 150.5,146.5C 149.626,148.747 149.292,151.08 149.5,153.5C 148.167,153.5 146.833,153.5 145.5,153.5C 145.5,154.833 145.5,156.167 145.5,157.5C 143.641,157.461 142.308,158.294 141.5,160C 139.19,160.497 136.857,160.663 134.5,160.5C 134.64,162.124 133.973,163.29 132.5,164C 128.167,164.667 123.833,164.667 119.5,164C 118.167,163.333 117.167,162.333 116.5,161C 113.833,160.667 111.167,160.333 108.5,160C 107.636,158.303 106.303,157.137 104.5,156.5C 103.534,154.604 103.201,152.604 103.5,150.5C 102.178,150.67 101.011,150.337 100,149.5C 99.5034,147.19 99.3367,144.857 99.5,142.5C 98.5,142.5 97.5,142.5 96.5,142.5C 96.3336,134.826 96.5003,127.159 97,119.5C 99.6054,114.128 103.105,109.461 107.5,105.5C 110.768,104.513 114.102,104.18 117.5,104.5C 117.33,103.178 117.663,102.011 118.5,101C 124.016,100.183 129.35,100.349 134.5,101.5 Z M 177.5,121.5 C 179.288,121.215 180.955,121.548 182.5,122.5C 184.11,124.731 185.943,126.731 188,128.5C 188.497,131.146 188.664,133.813 188.5,136.5C 187.448,136.351 186.448,136.517 185.5,137C 183.294,138.684 181.794,140.851 181,143.5C 179.285,140.603 176.785,139.269 173.5,139.5C 173.5,134.833 173.5,130.167 173.5,125.5C 174.833,125.5 176.167,125.5 177.5,125.5C 177.5,124.167 177.5,122.833 177.5,121.5 Z M 230.5,121.5 C 235.267,121.351 237.6,123.684 237.5,128.5C 238.833,128.5 240.167,128.5 241.5,128.5C 241.5,131.167 241.5,133.833 241.5,136.5C 240.167,136.5 238.833,136.5 237.5,136.5C 236.199,138.672 235.199,141.005 234.5,143.5C 233.167,143.5 231.833,143.5 230.5,143.5C 230.5,136.167 230.5,128.833 230.5,121.5 Z"/></g>
<g><path style="opacity:0.643" fill="#47c9e3" d="M 336.5,146.5 C 336.5,137.167 336.5,127.833 336.5,118.5C 337.833,118.5 339.167,118.5 340.5,118.5C 340.5,116.167 340.5,113.833 340.5,111.5C 341.5,111.5 342.5,111.5 343.5,111.5C 343.5,110.167 343.5,108.833 343.5,107.5C 344.833,107.5 346.167,107.5 347.5,107.5C 347.5,106.5 347.5,105.5 347.5,104.5C 349.833,104.5 352.167,104.5 354.5,104.5C 354.36,102.876 355.027,101.71 356.5,101C 366.161,100.5 375.828,100.334 385.5,100.5C 385.17,107.532 385.503,114.532 386.5,121.5C 388.409,122.348 390.409,122.682 392.5,122.5C 392.5,131.5 392.5,140.5 392.5,149.5C 391.5,149.5 390.5,149.5 389.5,149.5C 389.5,150.833 389.5,152.167 389.5,153.5C 388.167,153.5 386.833,153.5 385.5,153.5C 385.5,154.833 385.5,156.167 385.5,157.5C 384.5,157.5 383.5,157.5 382.5,157.5C 382.5,158.5 382.5,159.5 382.5,160.5C 377.577,161.076 372.91,162.409 368.5,164.5C 368.5,169.167 368.5,173.833 368.5,178.5C 374.167,178.5 379.833,178.5 385.5,178.5C 385.45,180.59 386.45,181.923 388.5,182.5C 389.474,184.743 389.808,187.076 389.5,189.5C 390.5,189.5 391.5,189.5 392.5,189.5C 392.5,200.833 392.5,212.167 392.5,223.5C 387.003,225.149 381.67,224.816 376.5,222.5C 375.528,213.554 375.194,204.554 375.5,195.5C 372.675,195.081 370.509,196.081 369,198.5C 368.667,206.833 368.333,215.167 368,223.5C 363.667,224.833 359.333,224.833 355,223.5C 354.5,203.836 354.333,184.169 354.5,164.5C 355.873,164.657 357.207,164.49 358.5,164C 355.486,160.966 351.819,159.799 347.5,160.5C 347.5,159.5 347.5,158.5 347.5,157.5C 344.5,157.833 343.167,156.5 343.5,153.5C 342.5,153.5 341.5,153.5 340.5,153.5C 341.32,149.778 339.987,147.445 336.5,146.5 Z M 361.5,121.5 C 364.518,121.335 367.518,121.502 370.5,122C 368.866,122.494 367.199,122.66 365.5,122.5C 364.646,128.121 364.313,133.788 364.5,139.5C 365.833,139.5 367.167,139.5 368.5,139.5C 368.5,140.833 368.5,142.167 368.5,143.5C 367.167,143.5 365.833,143.5 364.5,143.5C 364.67,142.178 364.337,141.011 363.5,140C 361.527,139.505 359.527,139.338 357.5,139.5C 357.5,134.833 357.5,130.167 357.5,125.5C 360.5,125.833 361.833,124.5 361.5,121.5 Z"/></g>
<g><path style="opacity:0.689" fill="#48c9e3" d="M 414.5,100.5 C 424.833,100.5 435.167,100.5 445.5,100.5C 445.334,107.508 445.5,114.508 446,121.5C 447.011,122.337 448.178,122.67 449.5,122.5C 449.5,123.5 449.5,124.5 449.5,125.5C 451.124,125.36 452.29,126.027 453,127.5C 453.498,124.518 453.665,121.518 453.5,118.5C 454.5,118.5 455.5,118.5 456.5,118.5C 456.5,116.167 456.5,113.833 456.5,111.5C 457.833,111.5 459.167,111.5 460.5,111.5C 460.5,110.167 460.5,108.833 460.5,107.5C 461.5,107.5 462.5,107.5 463.5,107.5C 463.5,106.5 463.5,105.5 463.5,104.5C 465.857,104.663 468.19,104.497 470.5,104C 471.167,103 471.833,102 472.5,101C 477.833,100.333 483.167,100.333 488.5,101C 489.91,101.368 490.91,102.201 491.5,103.5C 493.743,104.474 496.076,104.808 498.5,104.5C 498.5,105.5 498.5,106.5 498.5,107.5C 501.5,107.167 502.833,108.5 502.5,111.5C 503.5,111.5 504.5,111.5 505.5,111.5C 505.483,115.624 506.65,119.291 509,122.5C 509.5,129.158 509.666,135.825 509.5,142.5C 508.5,142.5 507.5,142.5 506.5,142.5C 507.278,148.008 505.611,152.508 501.5,156C 500.552,156.483 499.552,156.649 498.5,156.5C 498.67,157.822 498.337,158.989 497.5,160C 493.569,160.067 490.236,161.4 487.5,164C 482.129,164.676 476.796,164.509 471.5,163.5C 471.5,162.5 471.5,161.5 471.5,160.5C 465.399,161.701 461.732,159.367 460.5,153.5C 459.178,153.67 458.011,153.337 457,152.5C 456.505,150.527 456.338,148.527 456.5,146.5C 455.5,146.5 454.5,146.5 453.5,146.5C 453.66,144.801 453.494,143.134 453,141.5C 450.907,144.768 449.574,148.434 449,152.5C 447.989,153.337 446.822,153.67 445.5,153.5C 445.649,154.552 445.483,155.552 445,156.5C 442.772,159.806 439.606,161.306 435.5,161C 434.624,162.585 433.291,163.585 431.5,164C 427.167,164.667 422.833,164.667 418.5,164C 416.714,163.804 415.381,162.971 414.5,161.5C 412.257,160.526 409.924,160.192 407.5,160.5C 407.5,159.5 407.5,158.5 407.5,157.5C 403.275,157.111 400.775,154.778 400,150.5C 398.989,149.663 397.822,149.33 396.5,149.5C 396.665,146.482 396.498,143.482 396,140.5C 395.586,140.043 395.086,139.709 394.5,139.5C 393.338,134.533 393.171,129.533 394,124.5C 395.861,121.825 396.861,118.825 397,115.5C 398.011,114.663 399.178,114.33 400.5,114.5C 400.261,112.533 400.594,110.699 401.5,109C 403.847,108.288 405.847,107.121 407.5,105.5C 409.743,104.526 412.076,104.192 414.5,104.5C 414.5,103.167 414.5,101.833 414.5,100.5 Z M 421.5,121.5 C 423.857,121.337 426.19,121.503 428.5,122C 426.939,122.318 425.772,123.151 425,124.5C 424.501,129.489 424.334,134.489 424.5,139.5C 429.172,139.861 429.005,141.195 424,143.5C 422.699,142.902 421.865,141.902 421.5,140.5C 420.311,139.571 418.978,139.238 417.5,139.5C 418.041,136.348 417.041,133.848 414.5,132C 416.716,128.396 419.049,124.896 421.5,121.5 Z M 480.5,143.5 C 480.144,141.81 479.144,140.81 477.5,140.5C 476.791,139.596 475.791,139.263 474.5,139.5C 474.5,134.833 474.5,130.167 474.5,125.5C 475.5,125.5 476.5,125.5 477.5,125.5C 477.5,124.167 477.5,122.833 477.5,121.5C 479.527,121.338 481.527,121.505 483.5,122C 484.333,124.167 485.833,125.667 488,126.5C 488.498,129.817 488.665,133.15 488.5,136.5C 487.5,136.5 486.5,136.5 485.5,136.5C 485.5,137.5 485.5,138.5 485.5,139.5C 482.6,139.408 480.933,140.741 480.5,143.5 Z"/></g>
<g><path style="opacity:0.005" fill="#2252f4" d="M 134.5,101.5 C 135.401,102.29 136.068,103.29 136.5,104.5C 134.952,104.179 134.285,103.179 134.5,101.5 Z"/></g>
<g><path style="opacity:0.035" fill="#235f71" d="M 332.5,101.5 C 333.5,101.5 334.5,101.5 335.5,101.5C 336.354,107.121 336.687,112.788 336.5,118.5C 336.5,127.833 336.5,137.167 336.5,146.5C 336.687,152.212 336.354,157.879 335.5,163.5C 334.5,163.5 333.5,163.5 332.5,163.5C 332.5,142.833 332.5,122.167 332.5,101.5 Z"/></g>
<g><path style="opacity:0.004" fill="#8080ff" d="M 477.5,140.5 C 479.144,140.81 480.144,141.81 480.5,143.5C 479.5,143.5 478.5,143.5 477.5,143.5C 477.5,142.5 477.5,141.5 477.5,140.5 Z"/></g>
<g><path style="opacity:0.549" fill="#46c8e1" d="M 489.5,164.5 C 494.762,164.195 499.928,164.529 505,165.5C 505.189,181.365 505.689,197.199 506.5,213C 506.047,216.862 504.714,220.362 502.5,223.5C 497.833,224.651 493.166,224.651 488.5,223.5C 488.179,203.757 488.513,184.091 489.5,164.5 Z"/></g>
<g><path style="opacity:0.53" fill="#48c9e3" d="M 277.5,178.5 C 285.167,178.5 292.833,178.5 300.5,178.5C 300.281,179.675 300.614,180.675 301.5,181.5C 307.217,184.427 309.217,188.927 307.5,195C 300.18,196.235 299.847,197.902 306.5,200C 307.126,200.75 307.626,201.584 308,202.5C 308.667,207.167 308.667,211.833 308,216.5C 306.989,217.337 305.822,217.67 304.5,217.5C 304.5,218.5 304.5,219.5 304.5,220.5C 302.41,220.45 301.077,221.45 300.5,223.5C 293.858,224.664 287.192,224.831 280.5,224C 276.827,221.788 273.494,219.288 270.5,216.5C 269.513,213.232 269.18,209.898 269.5,206.5C 271.833,206.5 274.167,206.5 276.5,206.5C 276.5,205.5 276.5,204.5 276.5,203.5C 275.448,203.649 274.448,203.483 273.5,203C 272.842,201.095 271.675,199.595 270,198.5C 269.502,195.518 269.335,192.518 269.5,189.5C 270.5,189.5 271.5,189.5 272.5,189.5C 272.338,187.473 272.505,185.473 273,183.5C 275.391,182.61 276.891,180.943 277.5,178.5 Z"/></g>
<g><path style="opacity:0.529" fill="#47c9e3" d="M 319.5,178.5 C 327.174,178.334 334.841,178.5 342.5,179C 344.253,180.999 345.587,183.165 346.5,185.5C 347.822,185.33 348.989,185.663 350,186.5C 353.167,198 349,202.167 337.5,199C 336.663,197.989 336.33,196.822 336.5,195.5C 335.5,195.5 334.5,195.5 333.5,195.5C 333.5,194.5 333.5,193.5 333.5,192.5C 332.167,192.5 330.833,192.5 329.5,192.5C 329.5,193.5 329.5,194.5 329.5,195.5C 328.167,195.5 326.833,195.5 325.5,195.5C 325.177,199.226 325.511,202.893 326.5,206.5C 328.55,207.077 329.55,208.41 329.5,210.5C 330.833,210.5 332.167,210.5 333.5,210.5C 333.5,209.167 333.5,207.833 333.5,206.5C 339.167,206.5 344.833,206.5 350.5,206.5C 350.664,209.187 350.497,211.854 350,214.5C 347.772,215.892 346.606,217.892 346.5,220.5C 344.24,221.139 342.24,222.306 340.5,224C 333.833,224.667 327.167,224.667 320.5,224C 319.663,222.989 319.33,221.822 319.5,220.5C 318.167,220.5 316.833,220.5 315.5,220.5C 315.5,219.5 315.5,218.5 315.5,217.5C 314.178,217.67 313.011,217.337 312,216.5C 311.333,206.833 311.333,197.167 312,187.5C 312.71,186.027 313.876,185.36 315.5,185.5C 315.351,184.448 315.517,183.448 316,182.5C 318.071,181.897 319.238,180.564 319.5,178.5 Z"/></g>
<g><path style="opacity:0.547" fill="#48c9e3" d="M 407.5,178.5 C 414.5,178.5 421.5,178.5 428.5,178.5C 428.5,179.5 428.5,180.5 428.5,181.5C 432.964,182.298 435.297,184.964 435.5,189.5C 436.5,189.5 437.5,189.5 438.5,189.5C 438.666,197.174 438.5,204.841 438,212.5C 436.108,213.617 435.275,215.284 435.5,217.5C 434.167,217.5 432.833,217.5 431.5,217.5C 431.5,218.5 431.5,219.5 431.5,220.5C 430.5,220.5 429.5,220.5 428.5,220.5C 428.67,221.822 428.337,222.989 427.5,224C 420.842,224.5 414.175,224.666 407.5,224.5C 407.5,223.167 407.5,221.833 407.5,220.5C 405.167,220.5 402.833,220.5 400.5,220.5C 400.5,218.167 400.5,215.833 400.5,213.5C 399.167,213.5 397.833,213.5 396.5,213.5C 396.5,205.5 396.5,197.5 396.5,189.5C 397.833,189.5 399.167,189.5 400.5,189.5C 399.284,183.716 401.618,181.049 407.5,181.5C 407.5,180.5 407.5,179.5 407.5,178.5 Z M 414.5,192.5 C 416.995,193.199 419.328,194.199 421.5,195.5C 421.146,198.421 422.146,200.754 424.5,202.5C 423.675,203.386 422.675,203.719 421.5,203.5C 421.304,211.173 418.804,212.173 414,206.5C 413.517,205.552 413.351,204.552 413.5,203.5C 412.5,203.5 411.5,203.5 410.5,203.5C 410.5,200.833 410.5,198.167 410.5,195.5C 411.833,195.5 413.167,195.5 414.5,195.5C 414.5,194.5 414.5,193.5 414.5,192.5 Z"/></g>
<g><path style="opacity:0.554" fill="#47c9e3" d="M 453.5,178.5 C 460.175,178.334 466.842,178.5 473.5,179C 474.333,180.5 475.5,181.667 477,182.5C 477.483,183.448 477.649,184.448 477.5,185.5C 478.833,185.5 480.167,185.5 481.5,185.5C 481.5,187.833 481.5,190.167 481.5,192.5C 482.5,192.5 483.5,192.5 484.5,192.5C 484.5,198.167 484.5,203.833 484.5,209.5C 483.5,209.5 482.5,209.5 481.5,209.5C 481.663,211.857 481.497,214.19 481,216.5C 479.989,217.337 478.822,217.67 477.5,217.5C 477.5,218.5 477.5,219.5 477.5,220.5C 474.892,220.606 472.892,221.772 471.5,224C 465.5,224.667 459.5,224.667 453.5,224C 451.409,222.274 449.076,221.107 446.5,220.5C 446.55,218.41 445.55,217.077 443.5,216.5C 442.335,207.184 442.168,197.851 443,188.5C 445.054,186.942 446.554,184.942 447.5,182.5C 449.565,181.123 451.565,179.79 453.5,178.5 Z M 460.5,192.5 C 461.5,192.5 462.5,192.5 463.5,192.5C 463.5,193.5 463.5,194.5 463.5,195.5C 464.833,195.5 466.167,195.5 467.5,195.5C 467.823,199.226 467.489,202.893 466.5,206.5C 464.867,208.503 462.867,209.836 460.5,210.5C 460.833,207.5 459.5,206.167 456.5,206.5C 456.5,202.833 456.5,199.167 456.5,195.5C 458.973,195.912 460.306,194.912 460.5,192.5 Z"/></g>
<g><path style="opacity:0.004" fill="#0000ff" d="M 207.5,206.5 C 207.167,207.5 206.5,208.167 205.5,208.5C 205.5,207.167 206.167,206.5 207.5,206.5 Z"/></g>
</svg>
